<svg width="27" height="25" viewBox="0 0 27 25" fill="none" xmlns="http://www.w3.org/2000/svg">
<path d="M13.3252 20.6698C16.2577 20.6698 18.6802 18.2438 18.6802 15.2113C18.6802 14.5181 18.5527 13.8683 18.2977 13.2185L17.3202 14.2149C17.4052 14.5181 17.4477 14.8647 17.4477 15.1679C17.4477 17.464 15.6202 19.3268 13.3677 19.3268C11.1152 19.3268 9.28771 17.464 9.28771 15.1679C9.28771 12.8719 11.1152 11.0091 13.3677 11.0091C14.1327 11.0091 14.8977 11.2257 15.4927 11.6156L16.3852 10.7058C15.5352 10.0993 14.4727 9.70941 13.3252 9.70941C10.3927 9.70941 7.97021 12.1354 7.97021 15.1679C7.97021 18.2005 10.3927 20.6696 13.3252 20.6696V20.6698Z" fill="black"/>
<path d="M11.9651 13.7814C11.7101 13.5215 11.3276 13.5215 11.0726 13.7814C10.8176 14.0413 10.8176 14.4312 11.0726 14.6912L12.9001 16.554C13.0276 16.684 13.1976 16.7273 13.3251 16.7273C13.4951 16.7273 13.6651 16.684 13.7501 16.554L18.5526 11.6586C18.8076 11.3987 18.8076 11.0088 18.5526 10.7489C18.2976 10.489 17.9151 10.489 17.6601 10.7489L13.3251 15.211L11.9651 13.7814Z" fill="black"/>
<path d="M24.2902 2.12788H22.7177V3.5575C22.7177 4.25065 22.1652 4.85715 21.4427 4.85715H20.8902C20.2102 4.85715 19.6152 4.29397 19.6152 3.5575V2.12788H17.4477V3.5575C17.4477 4.25065 16.8952 4.85715 16.1727 4.85715H15.6202C14.9402 4.85715 14.3452 4.29397 14.3452 3.5575V2.12788H12.1777V3.5575C12.1777 4.25065 11.6252 4.85715 10.9027 4.85715H10.3502C9.67017 4.85715 9.07517 4.29397 9.07517 3.5575V2.12788H6.90767V3.5575C6.90767 4.25065 6.35517 4.85715 5.63267 4.85715H5.08017C4.40017 4.85715 3.80517 4.29397 3.80517 3.5575V2.12788H2.36017C1.08517 2.12788 0.107666 3.16761 0.107666 4.42394V22.0126C0.107666 23.2689 1.08517 24.3086 2.36017 24.3086H24.2474C25.4799 24.3086 26.4999 23.3122 26.4999 22.0126V4.42394C26.4999 3.12428 25.5224 2.12788 24.2899 2.12788H24.2902ZM25.0552 22.0994C25.0552 22.5327 24.7577 22.8359 24.2902 22.8359H2.40291C1.97791 22.8359 1.68041 22.5327 1.68041 22.0994V7.62999H25.0554L25.0552 22.0994Z" fill="black"/>
<path d="M5.1652 3.86098H5.7602C5.93019 3.86098 6.10019 3.68769 6.10019 3.5144V0.655168C6.10019 0.481881 5.93019 0.308594 5.7602 0.308594H5.1652C4.9952 0.308594 4.8252 0.481881 4.8252 0.655168V3.47108C4.8252 3.68769 4.9527 3.86098 5.1652 3.86098Z" fill="black"/>
<path d="M10.3925 3.86098H10.9875C11.1575 3.86098 11.3275 3.68769 11.3275 3.5144V0.655168C11.3275 0.481881 11.1575 0.308594 10.9875 0.308594H10.3925C10.2225 0.308594 10.0525 0.481881 10.0525 0.655168V3.47108C10.0525 3.68769 10.2225 3.86098 10.3925 3.86098Z" fill="black"/>
<path d="M15.6625 3.86098H16.2575C16.4275 3.86098 16.5975 3.68769 16.5975 3.5144V0.655168C16.5975 0.481881 16.4275 0.308594 16.2575 0.308594H15.6625C15.4925 0.308594 15.3225 0.481881 15.3225 0.655168V3.47108C15.28 3.68769 15.45 3.86098 15.6625 3.86098Z" fill="black"/>
<path d="M20.9753 3.86098H21.5703C21.7403 3.86098 21.9103 3.68769 21.9103 3.5144V0.655168C21.9103 0.481881 21.7403 0.308594 21.5703 0.308594H20.9753C20.8053 0.308594 20.6353 0.481881 20.6353 0.655168V3.47108C20.6353 3.68769 20.7628 3.86098 20.9753 3.86098Z" fill="black"/>
</svg>
