<svg width="27" height="26" viewBox="0 0 27 26" fill="none" xmlns="http://www.w3.org/2000/svg">
<path fill-rule="evenodd" clip-rule="evenodd" d="M8.24865 8.83221C9.92862 12.1794 14.5871 16.838 17.9343 18.5178L20.2673 16.2909C20.9598 15.63 22.0557 15.6429 22.7327 16.3196L26.2499 19.8368C26.6109 20.1978 26.7853 20.6441 26.765 21.1541C26.7447 21.6642 26.5352 22.0955 26.147 22.4263L21.957 25.9995C14.2845 26.1124 0.650321 12.7164 0.76735 4.8098L4.34026 0.619632C4.67154 0.231163 5.10242 0.0218376 5.61247 0.00158048C6.12252 -0.0186766 6.5688 0.155944 6.92981 0.51674L10.447 4.03392C11.1239 4.7108 11.1366 5.80673 10.4757 6.49925L8.24865 8.83221ZM15.4898 1.79156C17.9323 1.79156 20.1439 2.78148 21.7448 4.38231C23.3456 5.98315 24.3356 8.19448 24.3356 10.6373C24.3356 11.027 24.6515 11.3429 25.0411 11.3429C25.4308 11.3429 25.7467 11.027 25.7467 10.6373C25.7467 7.80508 24.5987 5.24088 22.7427 3.38468C20.8867 1.52864 18.3221 0.380227 15.49 0.380227C15.1003 0.380227 14.7844 0.696127 14.7844 1.08581C14.7844 1.47552 15.1001 1.79161 15.4898 1.79161L15.4898 1.79156ZM22.4207 10.637C22.4207 8.7231 21.645 6.99028 20.3908 5.73607C19.1367 4.48192 17.404 3.70617 15.4899 3.70617C15.1002 3.70617 14.7843 4.02207 14.7843 4.41175C14.7843 4.80144 15.1002 5.11734 15.4899 5.11734C17.0141 5.11734 18.3941 5.73518 19.3931 6.73397C20.392 7.73292 21.0097 9.11297 21.0097 10.6371C21.0097 11.0268 21.3256 11.3427 21.7153 11.3427C22.105 11.3429 22.4207 11.0266 22.4207 10.6369L22.4207 10.637ZM19.0949 10.637C19.0949 9.64149 18.6914 8.74011 18.0389 8.08784C17.3866 7.43552 16.4853 7.0319 15.4898 7.0319C15.1001 7.0319 14.7842 7.3478 14.7842 7.73749C14.7842 8.12719 15.1001 8.44307 15.4898 8.44307C16.0955 8.44307 16.6441 8.68866 17.041 9.08574C17.4381 9.48282 17.6837 10.031 17.6837 10.637C17.6837 11.0267 17.9996 11.3426 18.3893 11.3426C18.779 11.3428 19.0949 11.0267 19.0949 10.637Z" fill="black"/>
</svg>
