<svg width="27" height="26" viewBox="0 0 27 26" fill="none" xmlns="http://www.w3.org/2000/svg">
<path d="M13.7666 0.00012207C6.58784 0.00012207 0.766602 5.82143 0.766602 13.0001C0.766602 20.1788 6.58791 26.0001 13.7666 26.0001C20.9453 26.0001 26.7666 20.1788 26.7666 13.0001C26.7666 5.82143 20.9453 0.00012207 13.7666 0.00012207ZM19.7558 12.066L14.114 14.0977C13.6354 14.2703 13.1084 14.0217 12.9359 13.5433L12.7795 13.1108L10.8306 7.6945C10.658 7.21584 10.9066 6.68888 11.385 6.51631L11.8175 6.35993C12.2961 6.18736 12.8231 6.43593 12.9957 6.91435L14.634 11.4655L18.978 9.90313C19.4566 9.73057 19.9836 9.97914 20.1561 10.4576L20.3125 10.89C20.4851 11.3687 20.2365 11.8956 19.7581 12.0682L19.7558 12.066Z" fill="black"/>
</svg>
