<svg width="35" height="22" viewBox="0 0 35 22" fill="none" xmlns="http://www.w3.org/2000/svg">
<path fill-rule="evenodd" clip-rule="evenodd" d="M3.17712 0H32.1299C33.3372 0 34.3438 0.899009 34.5143 2.06152C28.8936 5.75078 23.2728 9.44083 17.6531 13.1308C12.0334 9.44156 6.4123 5.75218 0.791911 2.06152C0.962378 0.900077 1.96904 0 3.17632 0H3.17712ZM34.54 4.08835V18.2818L23.729 11.1847L34.54 4.08768V4.08835ZM34.4436 20.2636C34.1509 21.2647 33.2217 22 32.1298 22H3.17704C2.08519 22 1.15595 21.2634 0.863222 20.2625L13.1336 12.2066L17.1849 14.8658C17.4831 15.0607 17.8577 15.0451 18.1355 14.8556L22.1711 12.2066L34.4428 20.2625L34.4436 20.2636ZM0.766602 18.2826V4.08915L11.5777 11.1862L0.766602 18.2833V18.2826Z" fill="black"/>
</svg>
