<svg width="27" height="31" viewBox="0 0 27 31" fill="none" xmlns="http://www.w3.org/2000/svg">
<path d="M18.5367 22.754L17.7421 24.0209C21.7393 24.4108 24.5719 25.3738 24.5719 26.5005C24.5719 27.9736 19.7422 29.1684 13.7867 29.1684C7.82989 29.1684 3.00153 27.9736 3.00153 26.5005C3.00153 25.3811 5.78886 24.4251 9.7376 24.0282L8.94154 22.7592C4.1527 23.3538 0.766602 24.8034 0.766602 26.5006C0.766602 28.7271 6.58711 30.5313 13.7675 30.5313C20.9479 30.5313 26.7666 28.7271 26.7666 26.5006C26.7662 24.7972 23.3544 23.3439 18.5377 22.7541L18.5367 22.754Z" fill="black"/>
<path d="M13.6846 0C8.76051 0 4.76953 4.20672 4.76953 9.39505C4.76953 11.6208 5.50826 13.5143 6.72438 15.2828L13.6571 26.338L13.6578 26.3527L13.663 26.348L13.6865 26.3866L13.6953 26.2928L20.4898 15.4568C21.746 13.6842 22.5998 11.7073 22.5998 9.3952C22.5998 4.20677 18.6084 0.000145001 13.6847 0.000145001L13.6846 0ZM13.6843 12.5324C11.489 12.5324 9.70798 10.7528 9.70798 8.55721C9.70798 6.36122 11.489 4.58091 13.6843 4.58091C15.8803 4.58091 17.6595 6.36122 17.6595 8.55721C17.6591 10.7528 15.8803 12.5324 13.6843 12.5324Z" fill="black"/>
</svg>
