<svg width="255" height="252" viewBox="0 0 255 252" fill="none" xmlns="http://www.w3.org/2000/svg">
<path d="M1.08 201.36C4.176 201.36 4.392 203.916 4.392 211.008V226.992C4.392 234.084 4.176 236.64 1.08 236.64V237H26.856V231.06H26.496C26.496 236.244 15.516 236.64 12.096 236.64H7.488V217.416C8.064 216.66 8.964 216.12 10.008 216.156C12.564 216.228 14.4 219.324 18.792 219.324C21.636 219.324 23.4 217.488 23.4 215.364H23.04C23.04 216.624 21.744 217.416 20.376 217.416C17.208 217.416 15.228 215.184 11.664 215.184C10.008 215.184 8.568 215.796 7.488 216.84V201.36H13.464C21.744 201.36 26.496 203.304 26.496 205.716V205.86H26.856V201H1.08V201.36ZM29.0292 237H38.7492V236.64C35.6532 236.64 35.4372 234.084 35.4372 226.992V201H29.0292V201.36C32.1252 201.36 32.3412 203.916 32.3412 211.008V226.992C32.3412 234.084 32.1252 236.64 29.0292 236.64V237ZM54.34 237.72C59.704 237.72 63.628 234.804 65.5 230.52L64.996 230.304C63.232 234.948 58.48 236.496 55.636 236.496C49.012 236.496 45.16 230.844 45.088 224.148C45.016 219.072 46.96 211.224 54.268 211.224C64.564 211.224 64.42 225.084 59.092 225.084C56.212 225.084 53.404 220.296 49.624 220.296C47.14 220.296 45.844 221.7 45.844 223.176L45.988 223.212C46.096 222.924 46.888 222.312 47.752 222.312C51.28 222.312 53.044 225.516 58.84 225.516C62.98 225.516 65.32 223.068 65.356 219C65.392 215.364 62.08 210.792 54.34 210.792C46.6 210.792 41.992 216.84 41.992 224.256C41.992 231.672 46.6 237.72 54.34 237.72ZM82.1838 237.72C87.5478 237.72 91.4718 234.804 93.3438 230.52L92.8398 230.304C91.0758 234.948 86.3238 236.496 83.4798 236.496C76.8558 236.496 73.0038 230.844 72.9318 224.148C72.8598 219.072 74.8038 211.224 82.1118 211.224C85.8918 211.224 90.0318 213.6 92.0118 217.56H92.1558V213.312C92.1558 213.312 88.2678 210.792 82.1838 210.792C74.4438 210.792 69.8358 216.84 69.8358 224.256C69.8358 231.672 74.4438 237.72 82.1838 237.72ZM94.7981 211.512V211.872H98.1101V233.688C98.1101 236.064 98.7941 237.72 100.846 237.72C102.682 237.72 103.87 236.748 104.806 235.2L104.446 235.02C104.446 235.02 103.474 236.712 102.358 236.712C100.99 236.712 101.206 234.768 101.206 229.152V211.872H103.942V211.512H101.206V202.8H100.846C100.846 205.248 100.81 211.512 94.7981 211.512ZM116.339 237V236.64C113.243 236.64 113.027 234.084 113.027 226.992V212.34C115.079 211.692 119.939 211.296 122.171 211.296C124.763 211.296 126.023 212.664 126.023 214.32C126.023 215.796 125.087 216.984 124.079 217.02C124.079 218.028 125.051 218.676 126.059 218.676C128.111 218.676 129.155 217.092 129.155 215.184C129.155 212.412 126.779 210.792 123.575 210.792C119.579 210.792 114.935 211.512 110.795 211.512H106.619V211.872C109.715 211.872 109.931 214.428 109.931 221.52V226.992C109.931 234.084 109.715 236.64 106.619 236.64V237H116.339ZM144.375 237.72C152.115 237.72 156.795 231.672 156.795 224.256C156.795 216.84 152.115 210.792 144.375 210.792C136.635 210.792 132.027 216.84 132.027 224.256C132.027 231.672 136.635 237.72 144.375 237.72ZM135.087 224.256C135.087 216.336 138.795 211.224 144.375 211.224C149.955 211.224 153.735 216.336 153.735 224.256C153.735 232.176 149.955 237.288 144.375 237.288C138.795 237.288 135.087 232.176 135.087 224.256ZM160.021 237H169.741V236.64C166.645 236.64 166.429 234.084 166.429 226.992V201H160.021V201.36C163.117 201.36 163.333 203.916 163.333 211.008V226.992C163.333 234.084 163.117 236.64 160.021 236.64V237ZM170.824 211.872H171.688C174.28 211.872 175.144 214.824 175.828 217.02C177.34 221.88 178.456 225.768 180.364 231.708C182.056 236.928 184.396 237.684 185.332 237.72C183.532 243.588 177.016 251.58 172.624 251.58V251.94H177.484C180.724 251.94 184.792 240.492 185.764 237.72C188.104 230.376 189.868 224.544 191.632 218.892C192.316 216.696 194.08 211.872 196.564 211.872H197.176V211.512H187.708V211.872H188.5C192.532 211.872 191.776 216.804 190.948 219.684C189.616 224.256 188.068 229.08 186.232 234.84C185.188 234.696 184.252 233.724 183.604 231.708C181.372 224.724 180.184 220.584 178.276 214.392C177.844 212.988 176.872 211.512 175.252 211.512H170.824V211.872ZM197.207 235.524C199.511 237 202.463 237.72 206.279 237.72C211.859 237.72 217.007 235.668 217.007 230.376C217.007 220.404 199.799 223.824 199.799 216.372C199.799 213.672 202.391 211.152 206.927 211.152C210.779 211.152 213.947 213.42 215.351 217.56H215.495V213.312C215.495 213.312 212.651 210.792 206.567 210.792C200.699 210.792 197.711 213.672 197.711 217.056C197.711 227.172 214.091 223.248 214.091 230.844C214.091 234.984 210.203 237.288 206.279 237.36C200.627 237.468 197.567 232.824 197.567 231.132H197.207V235.524ZM229.964 237V236.64C226.868 236.64 226.652 234.084 226.652 226.992V211.512H220.244V211.872C223.34 211.872 223.556 214.428 223.556 221.52V226.992C223.556 234.084 223.34 236.64 220.244 236.64V237H229.964ZM222.512 206.796C222.512 208.128 223.592 209.208 224.924 209.208C226.256 209.208 227.336 208.128 227.336 206.796C227.336 205.464 226.256 204.384 224.924 204.384C223.592 204.384 222.512 205.464 222.512 206.796ZM232.855 235.524C235.159 237 238.111 237.72 241.927 237.72C247.507 237.72 252.655 235.668 252.655 230.376C252.655 220.404 235.447 223.824 235.447 216.372C235.447 213.672 238.039 211.152 242.575 211.152C246.427 211.152 249.595 213.42 250.999 217.56H251.143V213.312C251.143 213.312 248.299 210.792 242.215 210.792C236.347 210.792 233.359 213.672 233.359 217.056C233.359 227.172 249.739 223.248 249.739 230.844C249.739 234.984 245.851 237.288 241.927 237.36C236.275 237.468 233.215 232.824 233.215 231.132H232.855V235.524Z" fill="black"/>
<g clip-path="url(#clip0_301_2)">
<path d="M28.3633 143.949C26.5093 189.792 171.759 221.941 237.353 92.5204C220.947 119.805 166.759 124.986 134.396 119.47C75.2329 109.386 30.1169 100.588 28.3633 143.949Z" fill="#DEF7FF"/>
<path d="M96.352 110.636C95.6194 110.288 94.8639 109.984 94.0873 109.728L76.1016 144.823C74.6872 148.176 71.9983 154.079 67.2422 154.079V155.897H84.0283C113.358 155.897 121.931 129.481 113.358 115.365C109.512 109.032 105.013 104.845 100.409 102.307C99.0571 105.089 97.6963 107.882 96.352 110.636C114.28 119.157 118.416 154.079 79.0857 154.079C75.0757 154.079 76.1015 150.571 79.0857 144.823C79.9616 143.136 87.9989 127.744 96.352 110.636Z" fill="black"/>
<path d="M98.4037 101.306C82.6243 94.2323 66.5512 105.521 71.9985 115.365C80.0263 108.764 87.755 107.642 94.0875 109.728L98.4037 101.306Z" fill="black"/>
<path d="M94.0874 109.728C94.864 109.984 95.6195 110.288 96.3521 110.636C97.6964 107.882 99.0572 105.089 100.409 102.307C99.7423 101.939 99.0732 101.606 98.4036 101.306L94.0874 109.728Z" fill="black"/>
<path d="M114.477 75.9315L161.012 166.97C145.108 172.363 111.173 187.826 99.276 176.852C97.2711 175.003 96.9208 174.112 96.1985 172.211C92.3284 180.495 98.8096 193.048 119.326 186.158C139.842 179.269 197.422 152.589 209.365 171.154C219.017 186.158 187.473 191.695 174.324 168.027L169.218 169.633L164.112 171.239C168.635 184.806 201.858 195.33 210.857 182.143C214.51 176.621 216.174 162.574 192.859 162.574C186.797 162.574 184.512 162.574 172.575 164.646L120.772 63.2098H117.927L98.4037 101.306C99.0733 101.606 99.7425 101.939 100.409 102.307C105.197 92.4565 110.997 83.1769 114.477 75.9315Z" fill="black"/>
<path d="M27.4 11.2407V11.5207C26.8027 11.5207 26.3267 11.6514 25.972 11.9127C25.636 12.1741 25.384 12.6034 25.216 13.2007C25.048 13.7981 24.936 14.5727 24.88 15.5247C24.8427 16.4767 24.824 17.6434 24.824 19.0247V23.9247C24.992 23.5514 25.3653 23.1874 25.944 22.8327C26.5227 22.4594 27.232 22.2727 28.072 22.2727C28.7627 22.2727 29.4253 22.3661 30.06 22.5527C30.7133 22.7207 31.348 22.9167 31.964 23.1407C32.58 23.3647 33.1867 23.5701 33.784 23.7567C34.4 23.9247 35.016 24.0087 35.632 24.0087C36.1733 24.0087 36.6493 23.8687 37.06 23.5887C37.4893 23.2901 37.704 22.8981 37.704 22.4127H37.984C37.984 23.2527 37.6667 23.9807 37.032 24.5967C36.3973 25.1941 35.52 25.4927 34.4 25.4927C33.5413 25.4927 32.7573 25.3621 32.048 25.1007C31.3387 24.8394 30.676 24.5594 30.06 24.2607C29.444 23.9434 28.8653 23.6634 28.324 23.4207C27.8013 23.1594 27.288 23.0287 26.784 23.0287C26.056 23.0287 25.5427 23.2807 25.244 23.7847C24.964 24.2701 24.824 24.8394 24.824 25.4927V31.4567C24.824 32.8381 24.8427 34.0047 24.88 34.9567C24.936 35.9087 25.048 36.6834 25.216 37.2807C25.384 37.8781 25.636 38.3074 25.972 38.5687C26.3267 38.8301 26.8027 38.9607 27.4 38.9607V39.2407H19.84V38.9607C20.4373 38.9607 20.904 38.8301 21.24 38.5687C21.5947 38.3074 21.856 37.8781 22.024 37.2807C22.192 36.6834 22.2947 35.9087 22.332 34.9567C22.388 34.0047 22.416 32.8381 22.416 31.4567V19.0247C22.416 17.6434 22.388 16.4767 22.332 15.5247C22.2947 14.5727 22.192 13.7981 22.024 13.2007C21.856 12.6034 21.5947 12.1741 21.24 11.9127C20.904 11.6514 20.4373 11.5207 19.84 11.5207V11.2407H27.4ZM36.248 38.9607C36.8453 38.9607 37.312 38.8301 37.648 38.5687C38.0027 38.3074 38.264 37.8781 38.432 37.2807C38.6 36.6834 38.7027 35.9087 38.74 34.9567C38.796 34.0047 38.824 32.8381 38.824 31.4567V19.0247C38.824 17.6434 38.796 16.4767 38.74 15.5247C38.7027 14.5727 38.6 13.7981 38.432 13.2007C38.264 12.6034 38.0027 12.1741 37.648 11.9127C37.312 11.6514 36.8453 11.5207 36.248 11.5207V11.2407H43.808V11.5207C43.2107 11.5207 42.7347 11.6514 42.38 11.9127C42.044 12.1741 41.792 12.6034 41.624 13.2007C41.456 13.7981 41.344 14.5727 41.288 15.5247C41.2507 16.4767 41.232 17.6434 41.232 19.0247V31.4567C41.232 32.8381 41.2507 34.0047 41.288 34.9567C41.344 35.9087 41.456 36.6834 41.624 37.2807C41.792 37.8781 42.044 38.3074 42.38 38.5687C42.7347 38.8301 43.2107 38.9607 43.808 38.9607V39.2407H36.248V38.9607ZM46.3284 33.5847C46.3284 32.3527 46.5244 31.3167 46.9164 30.4767C47.3271 29.6181 47.8684 28.8994 48.5404 28.3207C49.2124 27.7421 49.9684 27.2754 50.8084 26.9207C51.6671 26.5474 52.5351 26.2394 53.4124 25.9967C54.2898 25.7354 55.1484 25.5114 55.9884 25.3247C56.8471 25.1194 57.6124 24.8954 58.2844 24.6527C58.9564 24.3914 59.4884 24.0834 59.8804 23.7287C60.2911 23.3741 60.4964 22.9074 60.4964 22.3287C60.4964 21.7687 60.3471 21.2834 60.0484 20.8727C59.7498 20.4621 59.3671 20.1354 58.9004 19.8927C58.4338 19.6314 57.9018 19.4447 57.3044 19.3327C56.7258 19.2021 56.1564 19.1367 55.5964 19.1367C54.9244 19.1367 54.2711 19.2021 53.6364 19.3327C53.0204 19.4447 52.4698 19.6314 51.9844 19.8927C51.4991 20.1541 51.1071 20.4901 50.8084 20.9007C50.5098 21.3114 50.3604 21.8061 50.3604 22.3847C50.3604 22.6461 50.4071 22.8794 50.5004 23.0847C50.5938 23.2714 50.6964 23.4207 50.8084 23.5327C50.9391 23.6447 51.0698 23.7101 51.2004 23.7287C51.3311 23.7474 51.4244 23.7287 51.4804 23.6727C51.5551 23.8781 51.5551 24.0834 51.4804 24.2887C51.4058 24.4754 51.2938 24.6434 51.1444 24.7927C50.9951 24.9421 50.8084 25.0634 50.5844 25.1567C50.3604 25.2501 50.1364 25.2967 49.9124 25.2967C49.3151 25.2967 48.8298 25.0727 48.4564 24.6247C48.0831 24.1767 47.8964 23.6541 47.8964 23.0567C47.8964 22.3661 48.0924 21.7594 48.4844 21.2367C48.8764 20.7141 49.4084 20.2754 50.0804 19.9207C50.7711 19.5661 51.5831 19.3047 52.5164 19.1367C53.4684 18.9501 54.4951 18.8567 55.5964 18.8567C56.3804 18.8567 57.2018 18.9407 58.0604 19.1087C58.9191 19.2581 59.7031 19.4914 60.4124 19.8087C61.1404 20.1074 61.7284 20.4714 62.1764 20.9007C62.6431 21.3301 62.8764 21.8247 62.8764 22.3847C62.8764 22.9447 62.6711 23.3927 62.2604 23.7287C61.8684 24.0461 61.3364 24.3167 60.6644 24.5407C60.0111 24.7461 59.2644 24.9327 58.4244 25.1007C57.5844 25.2501 56.7164 25.4367 55.8204 25.6607C54.9431 25.8847 54.0844 26.1741 53.2444 26.5287C52.4044 26.8834 51.6484 27.3687 50.9764 27.9847C50.3231 28.6007 49.7911 29.3754 49.3804 30.3087C48.9884 31.2421 48.7924 32.3901 48.7924 33.7527C48.7924 34.4807 48.9044 35.1621 49.1284 35.7967C49.3524 36.4127 49.6604 36.9541 50.0524 37.4207C50.4631 37.8687 50.9484 38.2234 51.5084 38.4847C52.0684 38.7461 52.6938 38.8767 53.3844 38.8767C54.1498 38.8767 54.9338 38.6714 55.7364 38.2607C56.5391 37.8501 57.2764 37.1967 57.9484 36.3007C58.6204 35.4047 59.1711 34.2474 59.6004 32.8287C60.0298 31.3914 60.2444 29.6554 60.2444 27.6207C60.2444 27.3034 60.2164 27.0141 60.1604 26.7527C60.1044 26.4727 59.9738 26.3047 59.7684 26.2487C59.7684 26.1554 59.8338 26.0714 59.9644 25.9967C60.1138 25.9034 60.3004 25.8567 60.5244 25.8567C61.0284 25.8567 61.4298 25.9781 61.7284 26.2207C62.0458 26.4634 62.2791 26.7901 62.4284 27.2007C62.5964 27.6114 62.6991 28.0781 62.7364 28.6007C62.7924 29.1234 62.8204 29.6647 62.8204 30.2247C62.8204 30.8407 62.8204 31.3634 62.8204 31.7927C62.8204 32.2034 62.8204 32.6047 62.8204 32.9967C62.8391 33.3887 62.8484 33.8181 62.8484 34.2847C62.8484 34.7514 62.8484 35.3581 62.8484 36.1047C62.8484 36.6834 62.9231 37.1594 63.0724 37.5327C63.2218 37.9061 63.4084 38.2047 63.6324 38.4287C63.8564 38.6341 64.0898 38.7741 64.3324 38.8487C64.5751 38.9234 64.7898 38.9607 64.9764 38.9607V39.2407H62.9884C62.2418 39.2407 61.6071 38.9327 61.0844 38.3167C60.5804 37.6821 60.3284 36.8327 60.3284 35.7687V30.9807C60.0858 32.1754 59.7684 33.3141 59.3764 34.3967C59.0031 35.4607 58.5084 36.3941 57.8924 37.1967C57.2951 37.9994 56.5671 38.6341 55.7084 39.1007C54.8498 39.5674 53.8044 39.8007 52.5724 39.8007C51.6764 39.8007 50.8458 39.6421 50.0804 39.3247C49.3151 39.0261 48.6524 38.6061 48.0924 38.0647C47.5324 37.5047 47.0938 36.8421 46.7764 36.0767C46.4778 35.3114 46.3284 34.4807 46.3284 33.5847ZM66.3791 39.2407V38.9607C66.9764 38.9607 67.4431 38.8301 67.7791 38.5687C68.1337 38.3074 68.3951 37.8781 68.5631 37.2807C68.7311 36.6834 68.8337 35.9087 68.8711 34.9567C68.9271 34.0047 68.9551 32.8381 68.9551 31.4567V27.2007C68.9551 25.8194 68.9271 24.6527 68.8711 23.7007C68.8337 22.7487 68.7311 21.9741 68.5631 21.3767C68.3951 20.7794 68.1337 20.3501 67.7791 20.0887C67.4431 19.8274 66.9764 19.6967 66.3791 19.6967V19.4167H71.3631V31.4567C71.3631 32.8381 71.3817 34.0047 71.4191 34.9567C71.4751 35.9087 71.5871 36.6834 71.7551 37.2807C71.9231 37.8781 72.1751 38.3074 72.5111 38.5687C72.8657 38.8301 73.3417 38.9607 73.9391 38.9607V39.2407H66.3791ZM70.0191 13.8727C70.5417 13.8727 70.9804 14.0594 71.3351 14.4327C71.7084 14.7874 71.8951 15.2261 71.8951 15.7487C71.8951 16.2714 71.7084 16.7194 71.3351 17.0927C70.9804 17.4474 70.5417 17.6247 70.0191 17.6247C69.4964 17.6247 69.0484 17.4474 68.6751 17.0927C68.3204 16.7194 68.1431 16.2714 68.1431 15.7487C68.1431 15.2261 68.3204 14.7874 68.6751 14.4327C69.0484 14.0594 69.4964 13.8727 70.0191 13.8727ZM78.5958 19.4167C80.2198 19.4167 81.8905 19.3234 83.6078 19.1367C85.3251 18.9501 86.9678 18.8567 88.5358 18.8567C89.7865 18.8567 90.8225 19.1554 91.6438 19.7527C92.4651 20.3501 92.8758 21.1901 92.8758 22.2727C92.8758 23.0194 92.6705 23.6634 92.2598 24.2047C91.8678 24.7274 91.2705 24.9887 90.4678 24.9887C90.0758 24.9887 89.7211 24.8767 89.4038 24.6527C89.0865 24.4101 88.9278 24.0927 88.9278 23.7007C89.3198 23.6821 89.6651 23.4767 89.9638 23.0847C90.2811 22.6741 90.4398 22.1794 90.4398 21.6007C90.4398 20.9474 90.1878 20.3967 89.6838 19.9487C89.1985 19.4821 88.4518 19.2487 87.4438 19.2487C87.0145 19.2487 86.4731 19.2674 85.8198 19.3047C85.1851 19.3421 84.5225 19.3981 83.8318 19.4727C83.1598 19.5287 82.5065 19.6127 81.8718 19.7247C81.2371 19.8181 80.7238 19.9301 80.3318 20.0607V31.4567C80.3318 32.8381 80.3505 34.0047 80.3878 34.9567C80.4438 35.9087 80.5558 36.6834 80.7238 37.2807C80.8918 37.8781 81.1438 38.3074 81.4798 38.5687C81.8345 38.8301 82.3105 38.9607 82.9078 38.9607V39.2407H75.3478V38.9607C75.9451 38.9607 76.4118 38.8301 76.7478 38.5687C77.1025 38.3074 77.3638 37.8781 77.5318 37.2807C77.6998 36.6834 77.8025 35.9087 77.8398 34.9567C77.8958 34.0047 77.9238 32.8381 77.9238 31.4567V27.2007C77.9238 25.8194 77.8958 24.6527 77.8398 23.7007C77.8025 22.7487 77.6998 21.9741 77.5318 21.3767C77.3638 20.7794 77.1025 20.3501 76.7478 20.0887C76.4118 19.8274 75.9451 19.6967 75.3478 19.6967V19.4167H78.5958ZM104.059 38.9607C104.656 38.9607 105.123 38.8301 105.459 38.5687C105.813 38.3074 106.075 37.8781 106.243 37.2807C106.411 36.6834 106.513 35.9087 106.551 34.9567C106.607 34.0047 106.635 32.8381 106.635 31.4567V19.0247C106.635 17.6434 106.607 16.4767 106.551 15.5247C106.513 14.5727 106.411 13.7981 106.243 13.2007C106.075 12.6034 105.813 12.1741 105.459 11.9127C105.123 11.6514 104.656 11.5207 104.059 11.5207V11.2407H107.307C107.923 11.2407 108.585 11.2127 109.295 11.1567C110.023 11.1007 110.76 11.0354 111.507 10.9607C112.253 10.8861 112.981 10.8207 113.691 10.7647C114.419 10.7087 115.091 10.6807 115.707 10.6807C116.696 10.6807 117.639 10.7647 118.535 10.9327C119.449 11.1007 120.252 11.3901 120.943 11.8007C121.652 12.1927 122.212 12.7154 122.623 13.3687C123.052 14.0221 123.267 14.8434 123.267 15.8327C123.267 17.0461 122.949 18.0634 122.315 18.8847C121.699 19.7061 120.924 20.3967 119.991 20.9567C119.057 21.4981 118.04 21.9554 116.939 22.3287C115.837 22.7021 114.82 23.0567 113.887 23.3927C112.953 23.7101 112.169 24.0461 111.535 24.4007C110.919 24.7367 110.611 25.1661 110.611 25.6887C110.611 26.0061 110.704 26.2114 110.891 26.3047C111.077 26.3794 111.255 26.4167 111.423 26.4167C111.721 26.4167 112.067 26.3327 112.459 26.1647C112.851 25.9781 113.289 25.7821 113.775 25.5767C114.26 25.3527 114.792 25.1567 115.371 24.9887C115.949 24.8021 116.575 24.7087 117.247 24.7087C118.311 24.7087 119.319 24.8767 120.271 25.2127C121.223 25.5301 122.044 25.9967 122.735 26.6127C123.444 27.2287 124.004 27.9661 124.415 28.8247C124.825 29.6834 125.031 30.6447 125.031 31.7087C125.031 32.9221 124.825 34.0234 124.415 35.0127C124.004 36.0021 123.407 36.8514 122.623 37.5607C121.839 38.2701 120.868 38.8207 119.711 39.2127C118.553 39.6047 117.228 39.8007 115.735 39.8007C114.932 39.8007 114.185 39.7727 113.495 39.7167C112.823 39.6607 112.16 39.5954 111.507 39.5207C110.872 39.4461 110.219 39.3807 109.547 39.3247C108.893 39.2687 108.184 39.2407 107.419 39.2407H104.059V38.9607ZM109.015 11.8567V38.5127C109.873 38.8301 110.676 39.0634 111.423 39.2127C112.188 39.3434 113.093 39.4087 114.139 39.4087C115.445 39.4087 116.621 39.2407 117.667 38.9047C118.712 38.5501 119.599 38.0554 120.327 37.4207C121.073 36.7674 121.643 35.9741 122.035 35.0407C122.427 34.1074 122.623 33.0621 122.623 31.9047C122.623 31.0647 122.501 30.2341 122.259 29.4127C122.035 28.5914 121.689 27.8541 121.223 27.2007C120.775 26.5474 120.215 26.0247 119.543 25.6327C118.871 25.2221 118.096 25.0167 117.219 25.0167C116.64 25.0167 116.08 25.1101 115.539 25.2967C114.997 25.4647 114.484 25.6514 113.999 25.8567C113.513 26.0621 113.047 26.2581 112.599 26.4447C112.151 26.6127 111.721 26.6967 111.311 26.6967C111.049 26.6967 110.816 26.6221 110.611 26.4727C110.424 26.3234 110.331 26.0807 110.331 25.7447C110.331 25.1287 110.592 24.5967 111.115 24.1487C111.637 23.6821 112.281 23.2434 113.047 22.8327C113.831 22.4034 114.68 21.9834 115.595 21.5727C116.509 21.1434 117.349 20.6674 118.115 20.1447C118.899 19.6221 119.552 19.0154 120.075 18.3247C120.597 17.6341 120.859 16.8221 120.859 15.8887C120.859 15.0114 120.663 14.2741 120.271 13.6767C119.897 13.0607 119.393 12.5661 118.759 12.1927C118.124 11.8007 117.396 11.5207 116.575 11.3527C115.772 11.1661 114.941 11.0727 114.083 11.0727C113.168 11.0727 112.3 11.1381 111.479 11.2687C110.657 11.3994 109.836 11.5954 109.015 11.8567ZM127.061 19.4167C127.696 19.4167 128.2 19.6594 128.573 20.1447C128.965 20.6114 129.245 21.1154 129.413 21.6567C129.787 22.8514 130.123 23.9714 130.421 25.0167C130.739 26.0621 131.056 27.1074 131.373 28.1527C131.691 29.1981 132.017 30.2807 132.353 31.4007C132.708 32.5207 133.109 33.7621 133.557 35.1247C133.819 35.9087 134.117 36.4967 134.453 36.8887C134.808 37.2807 135.191 37.5047 135.601 37.5607C136.311 35.3021 136.964 33.2207 137.561 31.3167C138.177 29.4127 138.747 27.5647 139.269 25.7727C139.437 25.2127 139.577 24.5874 139.689 23.8967C139.801 23.1874 139.811 22.5247 139.717 21.9087C139.643 21.2741 139.428 20.7514 139.073 20.3407C138.719 19.9114 138.149 19.6967 137.365 19.6967H136.749V19.4167H144.113V19.6967H143.637C143.152 19.6967 142.704 19.9021 142.293 20.3127C141.883 20.7234 141.509 21.2181 141.173 21.7967C140.856 22.3567 140.576 22.9541 140.333 23.5887C140.109 24.2047 139.932 24.7274 139.801 25.1567C139.111 27.3594 138.401 29.6367 137.673 31.9887C136.964 34.3407 136.152 36.9447 135.237 39.8007C135.107 40.1554 134.911 40.6781 134.649 41.3687C134.407 42.0594 134.117 42.8154 133.781 43.6367C133.445 44.4581 133.072 45.2887 132.661 46.1287C132.269 46.9874 131.849 47.7621 131.401 48.4527C130.972 49.1621 130.533 49.7407 130.085 50.1887C129.637 50.6367 129.208 50.8607 128.797 50.8607H125.017V50.5807C125.876 50.5807 126.8 50.2354 127.789 49.5447C128.797 48.8541 129.768 47.9767 130.701 46.9127C131.653 45.8487 132.503 44.6821 133.249 43.4127C133.996 42.1434 134.547 40.9394 134.901 39.8007C134.715 39.8007 134.472 39.7447 134.173 39.6327C133.875 39.5207 133.539 39.3061 133.165 38.9887C132.811 38.6527 132.447 38.1767 132.073 37.5607C131.7 36.9447 131.355 36.1327 131.037 35.1247C130.683 33.9674 130.347 32.9034 130.029 31.9327C129.731 30.9434 129.441 30.0007 129.161 29.1047C128.881 28.1901 128.601 27.3034 128.321 26.4447C128.06 25.5674 127.789 24.6527 127.509 23.7007C127.379 23.2714 127.229 22.8234 127.061 22.3567C126.893 21.8901 126.688 21.4607 126.445 21.0687C126.203 20.6767 125.904 20.3501 125.549 20.0887C125.213 19.8274 124.793 19.6967 124.289 19.6967H123.617V19.4167H127.061ZM144.137 29.3287C144.137 27.8914 144.352 26.5381 144.781 25.2687C145.229 23.9994 145.864 22.8887 146.685 21.9367C147.506 20.9847 148.505 20.2381 149.681 19.6967C150.876 19.1367 152.229 18.8567 153.741 18.8567C155.253 18.8567 156.541 19.0621 157.605 19.4727C158.688 19.8647 159.574 20.3781 160.265 21.0127C160.974 21.6287 161.488 22.3101 161.805 23.0567C162.141 23.8034 162.309 24.5314 162.309 25.2407C162.309 26.8274 161.87 28.0687 160.993 28.9647C160.116 29.8607 158.865 30.3087 157.241 30.3087C156.121 30.3087 155.169 30.1781 154.385 29.9167C153.601 29.6554 152.892 29.3754 152.257 29.0767C151.641 28.7594 151.053 28.4701 150.493 28.2087C149.933 27.9474 149.308 27.8167 148.617 27.8167C148.281 27.8167 147.973 27.9101 147.693 28.0967C147.432 28.2647 147.282 28.4047 147.245 28.5167L147.133 28.4887C147.133 27.9101 147.376 27.3967 147.861 26.9487C148.365 26.4821 149.102 26.2487 150.073 26.2487C150.801 26.2487 151.492 26.4447 152.145 26.8367C152.798 27.2287 153.424 27.6581 154.021 28.1247C154.618 28.5727 155.197 28.9927 155.757 29.3847C156.317 29.7767 156.877 29.9727 157.437 29.9727C158.128 29.9727 158.697 29.7114 159.145 29.1887C159.612 28.6474 159.929 27.9754 160.097 27.1727C160.265 26.3701 160.274 25.5114 160.125 24.5967C159.976 23.6634 159.649 22.7954 159.145 21.9927C158.641 21.1901 157.941 20.5274 157.045 20.0047C156.149 19.4634 155.029 19.1927 153.685 19.1927C152.266 19.1927 151.09 19.5381 150.157 20.2287C149.242 20.9007 148.514 21.7407 147.973 22.7487C147.432 23.7567 147.049 24.8487 146.825 26.0247C146.62 27.1821 146.526 28.2554 146.545 29.2447C146.564 30.5327 146.76 31.7647 147.133 32.9407C147.506 34.0981 148.038 35.1154 148.729 35.9927C149.438 36.8701 150.297 37.5701 151.305 38.0927C152.313 38.5967 153.461 38.8487 154.749 38.8487C155.309 38.8487 155.934 38.7741 156.625 38.6247C157.334 38.4567 158.025 38.1861 158.697 37.8127C159.388 37.4207 160.032 36.9167 160.629 36.3007C161.226 35.6847 161.693 34.9287 162.029 34.0327L162.421 34.2007C161.693 35.8807 160.582 37.2341 159.089 38.2607C157.614 39.2874 155.832 39.8007 153.741 39.8007C152.229 39.8007 150.876 39.5301 149.681 38.9887C148.505 38.4287 147.506 37.6727 146.685 36.7207C145.864 35.7687 145.229 34.6581 144.781 33.3887C144.352 32.1194 144.137 30.7661 144.137 29.3287ZM174.742 38.9607C175.34 38.9607 175.806 38.8301 176.142 38.5687C176.497 38.3074 176.758 37.8781 176.926 37.2807C177.094 36.6834 177.197 35.9087 177.234 34.9567C177.29 34.0047 177.318 32.8381 177.318 31.4567V19.0247C177.318 17.6434 177.29 16.4767 177.234 15.5247C177.197 14.5727 177.094 13.7981 176.926 13.2007C176.758 12.6034 176.497 12.1741 176.142 11.9127C175.806 11.6514 175.34 11.5207 174.742 11.5207V11.2407H177.99C178.606 11.2407 179.269 11.2127 179.978 11.1567C180.706 11.1007 181.444 11.0354 182.19 10.9607C182.937 10.8861 183.665 10.8207 184.374 10.7647C185.102 10.7087 185.774 10.6807 186.39 10.6807C187.38 10.6807 188.322 10.7647 189.218 10.9327C190.133 11.1007 190.936 11.3901 191.626 11.8007C192.336 12.1927 192.896 12.7154 193.306 13.3687C193.736 14.0221 193.95 14.8434 193.95 15.8327C193.95 17.0461 193.633 18.0634 192.998 18.8847C192.382 19.7061 191.608 20.3967 190.674 20.9567C189.741 21.4981 188.724 21.9554 187.622 22.3287C186.521 22.7021 185.504 23.0567 184.57 23.3927C183.637 23.7101 182.853 24.0461 182.218 24.4007C181.602 24.7367 181.294 25.1661 181.294 25.6887C181.294 26.0061 181.388 26.2114 181.574 26.3047C181.761 26.3794 181.938 26.4167 182.106 26.4167C182.405 26.4167 182.75 26.3327 183.142 26.1647C183.534 25.9781 183.973 25.7821 184.458 25.5767C184.944 25.3527 185.476 25.1567 186.054 24.9887C186.633 24.8021 187.258 24.7087 187.93 24.7087C188.994 24.7087 190.002 24.8767 190.954 25.2127C191.906 25.5301 192.728 25.9967 193.418 26.6127C194.128 27.2287 194.688 27.9661 195.098 28.8247C195.509 29.6834 195.714 30.6447 195.714 31.7087C195.714 32.9221 195.509 34.0234 195.098 35.0127C194.688 36.0021 194.09 36.8514 193.306 37.5607C192.522 38.2701 191.552 38.8207 190.394 39.2127C189.237 39.6047 187.912 39.8007 186.418 39.8007C185.616 39.8007 184.869 39.7727 184.178 39.7167C183.506 39.6607 182.844 39.5954 182.19 39.5207C181.556 39.4461 180.902 39.3807 180.23 39.3247C179.577 39.2687 178.868 39.2407 178.102 39.2407H174.742V38.9607ZM179.698 11.8567V38.5127C180.557 38.8301 181.36 39.0634 182.106 39.2127C182.872 39.3434 183.777 39.4087 184.822 39.4087C186.129 39.4087 187.305 39.2407 188.35 38.9047C189.396 38.5501 190.282 38.0554 191.01 37.4207C191.757 36.7674 192.326 35.9741 192.718 35.0407C193.11 34.1074 193.306 33.0621 193.306 31.9047C193.306 31.0647 193.185 30.2341 192.942 29.4127C192.718 28.5914 192.373 27.8541 191.906 27.2007C191.458 26.5474 190.898 26.0247 190.226 25.6327C189.554 25.2221 188.78 25.0167 187.902 25.0167C187.324 25.0167 186.764 25.1101 186.222 25.2967C185.681 25.4647 185.168 25.6514 184.682 25.8567C184.197 26.0621 183.73 26.2581 183.282 26.4447C182.834 26.6127 182.405 26.6967 181.994 26.6967C181.733 26.6967 181.5 26.6221 181.294 26.4727C181.108 26.3234 181.014 26.0807 181.014 25.7447C181.014 25.1287 181.276 24.5967 181.798 24.1487C182.321 23.6821 182.965 23.2434 183.73 22.8327C184.514 22.4034 185.364 21.9834 186.278 21.5727C187.193 21.1434 188.033 20.6674 188.798 20.1447C189.582 19.6221 190.236 19.0154 190.758 18.3247C191.281 17.6341 191.542 16.8221 191.542 15.8887C191.542 15.0114 191.346 14.2741 190.954 13.6767C190.581 13.0607 190.077 12.5661 189.442 12.1927C188.808 11.8007 188.08 11.5207 187.258 11.3527C186.456 11.1661 185.625 11.0727 184.766 11.0727C183.852 11.0727 182.984 11.1381 182.162 11.2687C181.341 11.3994 180.52 11.5954 179.698 11.8567ZM197.745 19.4167C198.379 19.4167 198.883 19.6594 199.257 20.1447C199.649 20.6114 199.929 21.1154 200.097 21.6567C200.47 22.8514 200.806 23.9714 201.105 25.0167C201.422 26.0621 201.739 27.1074 202.057 28.1527C202.374 29.1981 202.701 30.2807 203.037 31.4007C203.391 32.5207 203.793 33.7621 204.241 35.1247C204.502 35.9087 204.801 36.4967 205.137 36.8887C205.491 37.2807 205.874 37.5047 206.285 37.5607C206.994 35.3021 207.647 33.2207 208.245 31.3167C208.861 29.4127 209.43 27.5647 209.953 25.7727C210.121 25.2127 210.261 24.5874 210.373 23.8967C210.485 23.1874 210.494 22.5247 210.401 21.9087C210.326 21.2741 210.111 20.7514 209.757 20.3407C209.402 19.9114 208.833 19.6967 208.049 19.6967H207.433V19.4167H214.797V19.6967H214.321C213.835 19.6967 213.387 19.9021 212.977 20.3127C212.566 20.7234 212.193 21.2181 211.857 21.7967C211.539 22.3567 211.259 22.9541 211.017 23.5887C210.793 24.2047 210.615 24.7274 210.485 25.1567C209.794 27.3594 209.085 29.6367 208.357 31.9887C207.647 34.3407 206.835 36.9447 205.921 39.8007C205.79 40.1554 205.594 40.6781 205.333 41.3687C205.09 42.0594 204.801 42.8154 204.465 43.6367C204.129 44.4581 203.755 45.2887 203.345 46.1287C202.953 46.9874 202.533 47.7621 202.085 48.4527C201.655 49.1621 201.217 49.7407 200.769 50.1887C200.321 50.6367 199.891 50.8607 199.481 50.8607H195.701V50.5807C196.559 50.5807 197.483 50.2354 198.473 49.5447C199.481 48.8541 200.451 47.9767 201.385 46.9127C202.337 45.8487 203.186 44.6821 203.933 43.4127C204.679 42.1434 205.23 40.9394 205.585 39.8007C205.398 39.8007 205.155 39.7447 204.857 39.6327C204.558 39.5207 204.222 39.3061 203.849 38.9887C203.494 38.6527 203.13 38.1767 202.757 37.5607C202.383 36.9447 202.038 36.1327 201.721 35.1247C201.366 33.9674 201.03 32.9034 200.713 31.9327C200.414 30.9434 200.125 30.0007 199.845 29.1047C199.565 28.1901 199.285 27.3034 199.005 26.4447C198.743 25.5674 198.473 24.6527 198.193 23.7007C198.062 23.2714 197.913 22.8234 197.745 22.3567C197.577 21.8901 197.371 21.4607 197.129 21.0687C196.886 20.6767 196.587 20.3501 196.233 20.0887C195.897 19.8274 195.477 19.6967 194.973 19.6967H194.301V19.4167H197.745ZM214.821 29.3287C214.821 27.8914 215.035 26.5381 215.465 25.2687C215.913 23.9994 216.547 22.8887 217.369 21.9367C218.19 20.9847 219.189 20.2381 220.365 19.6967C221.559 19.1367 222.913 18.8567 224.425 18.8567C225.937 18.8567 227.225 19.0621 228.289 19.4727C229.371 19.8647 230.258 20.3781 230.949 21.0127C231.658 21.6287 232.171 22.3101 232.489 23.0567C232.825 23.8034 232.993 24.5314 232.993 25.2407C232.993 26.8274 232.554 28.0687 231.677 28.9647C230.799 29.8607 229.549 30.3087 227.925 30.3087C226.805 30.3087 225.853 30.1781 225.069 29.9167C224.285 29.6554 223.575 29.3754 222.941 29.0767C222.325 28.7594 221.737 28.4701 221.177 28.2087C220.617 27.9474 219.991 27.8167 219.301 27.8167C218.965 27.8167 218.657 27.9101 218.377 28.0967C218.115 28.2647 217.966 28.4047 217.929 28.5167L217.817 28.4887C217.817 27.9101 218.059 27.3967 218.545 26.9487C219.049 26.4821 219.786 26.2487 220.757 26.2487C221.485 26.2487 222.175 26.4447 222.829 26.8367C223.482 27.2287 224.107 27.6581 224.705 28.1247C225.302 28.5727 225.881 28.9927 226.441 29.3847C227.001 29.7767 227.561 29.9727 228.121 29.9727C228.811 29.9727 229.381 29.7114 229.829 29.1887C230.295 28.6474 230.613 27.9754 230.781 27.1727C230.949 26.3701 230.958 25.5114 230.809 24.5967C230.659 23.6634 230.333 22.7954 229.829 21.9927C229.325 21.1901 228.625 20.5274 227.729 20.0047C226.833 19.4634 225.713 19.1927 224.369 19.1927C222.95 19.1927 221.774 19.5381 220.841 20.2287C219.926 20.9007 219.198 21.7407 218.657 22.7487C218.115 23.7567 217.733 24.8487 217.509 26.0247C217.303 27.1821 217.21 28.2554 217.229 29.2447C217.247 30.5327 217.443 31.7647 217.817 32.9407C218.19 34.0981 218.722 35.1154 219.413 35.9927C220.122 36.8701 220.981 37.5701 221.989 38.0927C222.997 38.5967 224.145 38.8487 225.433 38.8487C225.993 38.8487 226.618 38.7741 227.309 38.6247C228.018 38.4567 228.709 38.1861 229.381 37.8127C230.071 37.4207 230.715 36.9167 231.313 36.3007C231.91 35.6847 232.377 34.9287 232.713 34.0327L233.105 34.2007C232.377 35.8807 231.266 37.2341 229.773 38.2607C228.298 39.2874 226.515 39.8007 224.425 39.8007C222.913 39.8007 221.559 39.5301 220.365 38.9887C219.189 38.4287 218.19 37.6727 217.369 36.7207C216.547 35.7687 215.913 34.6581 215.465 33.3887C215.035 32.1194 214.821 30.7661 214.821 29.3287Z" fill="black"/>
</g>
<defs>
<clipPath id="clip0_301_2">
<rect width="241" height="228" fill="white" transform="translate(14 0.111694)"/>
</clipPath>
</defs>
</svg>
